<svg xmlns:x="http://ns.adobe.com/Extensibility/1.0/" xmlns:i="http://ns.adobe.com/AdobeIllustrator/10.0/" xmlns:graph="http://ns.adobe.com/Graphs/1.0/" xmlns="http://www.w3.org/2000/svg" xmlns:xlink="http://www.w3.org/1999/xlink" version="1.1" x="0px" y="0px" viewBox="0 0 64 80" enable-background="new 0 0 64 64" xml:space="preserve"><metadata><sfw xmlns="http://ns.adobe.com/SaveForWeb/1.0/"><slices/><sliceSourceBounds y="-8160" x="-8165" width="16389" height="16384" bottomLeftOrigin="true"/></sfw></metadata><g><g><path d="M42,6H22c-3.309,0-6,2.691-6,6v10h32V12C48,8.691,45.309,6,42,6z M42,18c0,1.104-0.896,2-2,2s-2-0.896-2-2v-4    c0-1.104,0.896-2,2-2s2,0.896,2,2V18z"/><path d="M16,50c0,3.309,2.691,6,6,6c0,1.104,0.896,2,2,2s2-0.896,2-2h12c0,1.104,0.896,2,2,2s2-0.896,2-2c3.309,0,6-2.691,6-6V26    H16V50z M38,30c0-1.104,0.896-2,2-2s2,0.896,2,2v8c0,1.104-0.896,2-2,2s-2-0.896-2-2V30z"/></g></g></svg>